<svg id="Calque_1" data-name="Calque 1" xmlns="http://www.w3.org/2000/svg" viewBox="0 0 391.71 737.65" fill="#64FFDA"><path class="cls-1" d="M281.14,300.75,153.73,428.33c-14.13,14.14-38.3,4.14-38.3-15.85v-255c0-20,24.16-30,38.29-15.86L281.13,269A22.43,22.43,0,0,1,281.14,300.75Z" transform="translate(-114.93 -134.51)"/><path class="cls-1" d="M297.87,720.89,153.72,865c-14.13,14.13-38.29,4.12-38.29-15.86v-319A22.45,22.45,0,0,1,122,514.3l29.63-29.65a22.42,22.42,0,0,1,35.43,4.89L301.58,694.08A22.43,22.43,0,0,1,297.87,720.89Z" transform="translate(-114.93 -134.51)"/><path class="cls-1" d="M499.57,519.19,361.24,657.52a22.42,22.42,0,0,1-35.46-5l-114-205.1a22.43,22.43,0,0,1,3.73-26.75l92.75-92.85a22.43,22.43,0,0,1,31.73,0L499.57,487.47A22.43,22.43,0,0,1,499.57,519.19Z" transform="translate(-114.93 -134.51)"/><path class="cls-2" d="M281.14,300.75,153.73,428.33c-14.13,14.14-38.3,4.14-38.3-15.85v-255c0-20,24.16-30,38.29-15.86L281.13,269A22.43,22.43,0,0,1,281.14,300.75Z" transform="translate(-114.93 -134.51)"/><path class="cls-2" d="M297.87,720.89,153.72,865c-14.13,14.13-38.29,4.12-38.29-15.86v-319A22.45,22.45,0,0,1,122,514.3l29.63-29.65a22.42,22.42,0,0,1,35.43,4.89L301.58,694.08A22.43,22.43,0,0,1,297.87,720.89Z" transform="translate(-114.93 -134.51)"/><path class="cls-2" d="M499.57,519.19,361.24,657.52a22.42,22.42,0,0,1-35.46-5l-114-205.1a22.43,22.43,0,0,1,3.73-26.75l92.75-92.85a22.43,22.43,0,0,1,31.73,0L499.57,487.47A22.43,22.43,0,0,1,499.57,519.19Z" transform="translate(-114.93 -134.51)"/></svg>